<svg width="193" height="192" viewBox="0 0 193 192" fill="none" xmlns="http://www.w3.org/2000/svg">
<path d="M67.6556 129.901L67.6556 137.031C67.6556 150.82 78.8515 162.015 92.6695 162.045" stroke="#404040" strokeWidth="2" strokeLinecap="round" strokeLinejoin="round"/>
<path d="M96.8535 120.385L96.8535 134.939C96.8535 143.012 103.365 149.523 111.438 149.523C119.51 149.523 126.022 143.012 126.022 134.939L126.022 112.017C126.022 95.9307 112.94 82.8492 96.8535 82.8492C80.7668 82.8492 67.6853 95.9307 67.6853 112.017" stroke="#404040" strokeWidth="2" strokeLinecap="round" strokeLinejoin="round"/>
<path d="M125.344 61.7245L125.344 54.5945C125.344 40.8059 114.149 29.6101 100.33 29.5806" stroke="#404040" strokeWidth="2" strokeLinecap="round" strokeLinejoin="round"/>
<path d="M96.1465 71.2407L96.1465 56.6861C96.1465 48.6133 89.6352 42.102 81.5624 42.102C73.4896 42.102 66.9784 48.6133 66.9784 56.6861L66.9784 79.6081C66.9784 95.6948 80.0598 108.776 96.1465 108.776C112.233 108.776 125.315 95.6948 125.315 79.6081" stroke="#404040" strokeWidth="2" strokeLinecap="round" strokeLinejoin="round"/>
</svg>
