<svg width="34" height="34" viewBox="0 0 34 34" fill="none" xmlns="http://www.w3.org/2000/svg">
<path d="M33.1667 13.3336C32.7667 11.7003 32.1 10.1003 31.1667 8.63362C30.5333 7.56695 29.7 6.50028 28.8 5.56695C25.8 2.56695 21.9 0.933615 17.9 0.733615C13.3667 0.433615 8.73335 2.10028 5.23335 5.56695C1.93335 8.83362 0.266678 13.2003 0.333345 17.6003C0.366678 21.7669 2.03334 25.9336 5.20001 29.1336C7.40001 31.3336 10.1 32.8003 13 33.467C14.5667 33.867 16.2333 34.0669 17.9 33.9336C21.8667 33.7669 25.7333 32.2003 28.7667 29.1336C33.0667 24.8336 34.5333 18.8003 33.1667 13.3336ZM23.6667 24.0003C22.4667 25.2003 20.4667 25.2003 19.2667 24.0003L16.9667 21.7003L14.7667 23.9003C13.5667 25.1003 11.5667 25.1003 10.3667 23.9003C9.13335 22.667 9.13334 20.7003 10.3333 19.5003L12.5333 17.3003L10.4 15.2336C9.20001 14.0003 9.20001 12.0336 10.4 10.7669C11.6333 9.56695 13.6 9.56695 14.8667 10.7669L16.9333 12.9003L19.1667 10.6669C20.3667 9.46695 22.3333 9.46695 23.5667 10.6669C24.7667 11.8669 24.7667 13.8669 23.5667 15.0669L21.3667 17.2669L23.6667 19.6003C24.8667 20.8003 24.8667 22.8003 23.6667 24.0003Z" fill="#F44336"/>
</svg>
