<svg width="46" height="46" viewBox="0 0 46 46" fill="none" xmlns="http://www.w3.org/2000/svg">
<path d="M23 17.25V26.8333" stroke="#F44336" strokeWidth="3" strokeLinecap="round" strokeLinejoin="round"/>
<path d="M23.0005 6.46899C24.5022 6.46918 26.3394 7.50026 27.8979 10.3108L27.8989 10.3118L33.5337 20.4504L39.5132 31.2219C40.9628 33.8366 40.8901 35.885 40.1216 37.1917C39.3532 38.4979 37.5995 39.5549 34.6147 39.5549H23.228C23.1537 39.5436 23.0779 39.5354 23.0005 39.5354H11.3853C8.38958 39.5354 6.63817 38.4781 5.87256 37.1741C5.10624 35.8686 5.03511 33.8191 6.48584 31.2024L6.48682 31.2034L12.4663 20.4319L12.4653 20.4309L18.1011 10.3127L18.1021 10.3108C19.6607 7.49996 21.4987 6.46899 23.0005 6.46899Z" stroke="#F44336" strokeWidth="3" strokeLinecap="round" strokeLinejoin="round"/>
<path d="M22.9893 32.5833H23.0065" stroke="#F44336" strokeWidth="3" strokeLinecap="round" strokeLinejoin="round"/>
</svg>
