<svg width="25" height="25" viewBox="0 0 25 25" fill="none" xmlns="http://www.w3.org/2000/svg">
<path opacity="0.4" d="M12.5002 22.9168C18.2531 22.9168 22.9168 18.2531 22.9168 12.5002C22.9168 6.7472 18.2531 2.0835 12.5002 2.0835C6.7472 2.0835 2.0835 6.7472 2.0835 12.5002C2.0835 18.2531 6.7472 22.9168 12.5002 22.9168Z" fill="#2196F3"/>
<path d="M12.5 14.3231C12.9271 14.3231 13.2812 13.9689 13.2812 13.5418V8.3335C13.2812 7.90641 12.9271 7.55225 12.5 7.55225C12.0729 7.55225 11.7188 7.90641 11.7188 8.3335V13.5418C11.7188 13.9689 12.0729 14.3231 12.5 14.3231Z" fill="#2196F3"/>
<path d="M13.4585 16.271C13.4064 16.146 13.3335 16.0314 13.2397 15.9272C13.1356 15.8335 13.021 15.7606 12.896 15.7085C12.646 15.6043 12.3543 15.6043 12.1043 15.7085C11.9793 15.7606 11.8647 15.8335 11.7606 15.9272C11.6668 16.0314 11.5939 16.146 11.5418 16.271C11.4897 16.396 11.4585 16.5314 11.4585 16.6668C11.4585 16.8022 11.4897 16.9377 11.5418 17.0627C11.5939 17.1981 11.6668 17.3022 11.7606 17.4064C11.8647 17.5002 11.9793 17.5731 12.1043 17.6252C12.2293 17.6772 12.3647 17.7085 12.5002 17.7085C12.6356 17.7085 12.771 17.6772 12.896 17.6252C13.021 17.5731 13.1356 17.5002 13.2397 17.4064C13.3335 17.3022 13.4064 17.1981 13.4585 17.0627C13.5106 16.9377 13.5418 16.8022 13.5418 16.6668C13.5418 16.5314 13.5106 16.396 13.4585 16.271Z" fill="#2196F3"/>
</svg>
