<svg width="40" height="40" viewBox="0 0 40 40" fill="none" xmlns="http://www.w3.org/2000/svg">
<path d="M3.3335 14.9999V10.8333C3.3335 6.68325 6.6835 3.33325 10.8335 3.33325H15.0002" stroke="#075E54" strokeWidth="2" strokeLinecap="round" strokeLinejoin="round"/>
<path d="M25 3.33325H29.1667C33.3167 3.33325 36.6667 6.68325 36.6667 10.8333V14.9999" stroke="#075E54" strokeWidth="2" strokeLinecap="round" strokeLinejoin="round"/>
<path d="M36.6665 26.6667V29.1667C36.6665 33.3167 33.3165 36.6667 29.1665 36.6667H26.6665" stroke="#075E54" strokeWidth="2" strokeLinecap="round" strokeLinejoin="round"/>
<path d="M15.0002 36.6667H10.8335C6.6835 36.6667 3.3335 33.3167 3.3335 29.1667V25" stroke="#075E54" strokeWidth="2" strokeLinecap="round" strokeLinejoin="round"/>
<path d="M28.3332 15.8333V24.1666C28.3332 27.4999 26.6665 29.1666 23.3332 29.1666H16.6665C13.3332 29.1666 11.6665 27.4999 11.6665 24.1666V15.8333C11.6665 12.4999 13.3332 10.8333 16.6665 10.8333H23.3332" stroke="#075E54" strokeWidth="2" strokeLinecap="round" strokeLinejoin="round"/>
<path d="M31.6668 20H8.3335" stroke="#075E54" strokeWidth="2" strokeLinecap="round" strokeLinejoin="round"/>
</svg>
