<svg width="42" height="42" viewBox="0 0 42 42" fill="none" xmlns="http://www.w3.org/2000/svg">
<path d="M21 14V22.75" stroke="#075E54" strokeWidth="2" strokeLinecap="round" strokeLinejoin="round"/>
<path d="M14.0176 9.555C16.1176 8.4875 18.4801 7.875 21.0001 7.875C29.4526 7.875 36.3126 14.735 36.3126 23.1875" stroke="#075E54" strokeWidth="2" strokeLinecap="round" strokeLinejoin="round"/>
<path d="M21 38.4999C12.5475 38.4999 5.6875 31.6399 5.6875 23.1874C5.6875 19.7224 6.8425 16.5374 8.7675 13.9824" stroke="#075E54" strokeWidth="2" strokeLinecap="round" strokeLinejoin="round"/>
<path d="M15.75 3.5H26.25" stroke="#075E54" strokeWidth="2" strokeMiterlimit="10" strokeLinecap="round" strokeLinejoin="round"/>
<path d="M26.0752 32.3751V30.3451C26.0752 27.8426 27.8602 26.8101 30.0302 28.0701L31.7802 29.0851L33.5302 30.1001C35.7002 31.3601 35.7002 33.4076 33.5302 34.6676L31.7802 35.6826L30.0302 36.6976C27.8602 37.9576 26.0752 36.9251 26.0752 34.4226V32.3751Z" stroke="#075E54" strokeWidth="2" strokeMiterlimit="10" strokeLinecap="round" strokeLinejoin="round"/>
</svg>
