<svg width="42" height="42" viewBox="0 0 42 42" fill="none" xmlns="http://www.w3.org/2000/svg">
<path d="M21 3.5V14L24.5 10.5" stroke="#075E54" strokeWidth="2" strokeLinecap="round" strokeLinejoin="round"/>
<path d="M21 14L17.5 10.5" stroke="#075E54" strokeWidth="2" strokeLinecap="round" strokeLinejoin="round"/>
<path d="M21 38.5H28C35 38.5 36.75 34.58 36.75 29.75V28C36.75 24.1325 36.75 21 29.75 21C28 21 27.51 21.3675 26.6 22.05L24.815 23.94C22.75 26.145 19.25 26.145 17.1675 23.94L15.4 22.05C14.49 21.3675 14 21 12.25 21C5.25 21 5.25 24.1325 5.25 28V29.75C5.25 34.58 5.25 38.5 14 38.5" stroke="#075E54" strokeWidth="2" strokeMiterlimit="10" strokeLinecap="round" strokeLinejoin="round"/>
<path d="M8.75 21.0001V14.0001C8.75 10.4826 8.75 7.57757 14 7.07007" stroke="#075E54" strokeWidth="2" strokeMiterlimit="10" strokeLinecap="round" strokeLinejoin="round"/>
<path d="M33.25 21.0001V14.0001C33.25 10.4826 33.25 7.57757 28 7.07007" stroke="#075E54" strokeWidth="2" strokeMiterlimit="10" strokeLinecap="round" strokeLinejoin="round"/>
</svg>
