<svg width="42" height="42" viewBox="0 0 42 42" fill="none" xmlns="http://www.w3.org/2000/svg">
<path d="M21 14V3.5L17.5 7" stroke="#075E54" strokeWidth="2" strokeLinecap="round" strokeLinejoin="round"/>
<path d="M21 3.5L24.5 7" stroke="#075E54" strokeWidth="2" strokeLinecap="round" strokeLinejoin="round"/>
<path d="M21 38.5H28C35 38.5 36.75 34.58 36.75 29.75V28C36.75 24.1325 36.75 21 29.75 21C28 21 27.51 21.3675 26.6 22.05L24.815 23.94C22.75 26.145 19.25 26.145 17.1675 23.94L15.4 22.05C14.49 21.3675 14 21 12.25 21C5.25 21 5.25 24.1325 5.25 28V29.75C5.25 34.58 5.25 38.5 14 38.5" stroke="#075E54" strokeWidth="2" strokeMiterlimit="10" strokeLinecap="round" strokeLinejoin="round"/>
<path d="M8.75 21.0001V17.5001C8.75 13.9826 8.75 11.0776 14 10.5701" stroke="#075E54" strokeWidth="2" strokeMiterlimit="10" strokeLinecap="round" strokeLinejoin="round"/>
<path d="M33.25 21.0001V17.5001C33.25 13.9826 33.25 11.0776 28 10.5701" stroke="#075E54" strokeWidth="2" strokeMiterlimit="10" strokeLinecap="round" strokeLinejoin="round"/>
</svg>
