<svg width="42" height="42" viewBox="0 0 42 42" fill="none" xmlns="http://www.w3.org/2000/svg">
<path d="M3.5 14C3.5 7 7 3.5 14 3.5H28C35 3.5 38.5 7 38.5 14V22.75C38.5 29.75 35 33.25 28 33.25H27.125C26.5825 33.25 26.0575 33.5125 25.725 33.95L23.1 37.45C21.945 38.99 20.055 38.99 18.9 37.45L16.275 33.95C15.995 33.565 15.3475 33.25 14.875 33.25H14C7 33.25 3.5 31.5 3.5 22.75V21" stroke="white" strokeWidth="2" strokeMiterlimit="10" strokeLinecap="round" strokeLinejoin="round"/>
<path d="M27.9824 14H29.7499" stroke="white" strokeWidth="2" strokeLinecap="round" strokeLinejoin="round"/>
<path d="M12.25 14H21.8925" stroke="white" strokeWidth="2" strokeLinecap="round" strokeLinejoin="round"/>
<path d="M12.25 22.75H22.75" stroke="white" strokeWidth="2" strokeLinecap="round" strokeLinejoin="round"/>
</svg>
