<svg width="29" height="22" viewBox="0 0 29 22" fill="none" xmlns="http://www.w3.org/2000/svg">
<path d="M26.5811 1C26.9537 1.00007 27.3131 1.14992 27.5801 1.41992C27.8474 1.69029 27.9999 2.05913 28 2.44629C28 2.8336 27.8475 3.20317 27.5801 3.47363L10.667 20.5791L10.666 20.5801C10.534 20.7138 10.3781 20.8198 10.207 20.8916C10.0359 20.9634 9.85257 21 9.66797 21C9.4834 21 9.30002 20.9634 9.12891 20.8916C8.95768 20.8197 8.80101 20.714 8.66895 20.5801L8.66797 20.5791L1.41992 13.248C1.28759 13.1142 1.1816 12.9547 1.10938 12.7783C1.0372 12.602 1 12.4122 1 12.2207C1.00006 12.0294 1.03727 11.8402 1.10938 11.6641C1.1816 11.4877 1.28759 11.3282 1.41992 11.1943C1.6869 10.9244 2.04634 10.7745 2.41895 10.7744C2.60374 10.7744 2.78763 10.811 2.95898 10.8828C3.12992 10.9545 3.28589 11.06 3.41797 11.1934V11.1943L8.95605 16.7998L9.66797 17.5195L10.3789 16.7998L25.5811 1.41992C25.8481 1.14984 26.2083 1 26.5811 1Z" fill="#075E54" stroke="#075E54" strokeWidth="2"/>
</svg>
