<svg width="34" height="34" viewBox="0 0 34 34" fill="none" xmlns="http://www.w3.org/2000/svg">
<path d="M17 0.666992C13.0666 0.666992 9.46665 2.03366 6.59998 4.33366C2.76665 7.36699 0.333313 12.067 0.333313 17.3337C0.333313 20.467 1.19998 23.4003 2.76665 25.9003C5.63331 30.7337 10.9 34.0003 17 34.0003C21.2 34.0003 25.0333 32.467 27.9666 29.8337C29.2666 28.7337 30.4 27.4003 31.2666 25.9003C32.8 23.4003 33.6666 20.467 33.6666 17.3337C33.6666 8.13366 26.2 0.666992 17 0.666992ZM25.6333 15.5337L16.7333 23.7337C16.1333 24.3003 15.3666 24.567 14.6 24.567C13.8 24.567 13 24.267 12.4 23.667L8.29998 19.5337C7.06665 18.3003 7.06665 16.3337 8.29998 15.1003C9.53331 13.867 11.5 13.867 12.7333 15.1003L14.7 17.067L21.4 10.9003C22.6666 9.73366 24.6333 9.80033 25.8 11.067C26.9666 12.367 26.9 14.367 25.6333 15.5337Z" fill="#4CAF50"/>
</svg>
