<svg width="44" height="44" viewBox="0 0 44 44" fill="none" xmlns="http://www.w3.org/2000/svg">
<path d="M9.77148 3.6665H34.2281C36.2631 3.6665 37.9315 5.33482 37.9315 7.36982V11.4398C37.9315 12.9248 36.9964 14.7765 36.0798 15.6932" stroke="#25D366" stroke-width="2.5" stroke-miterlimit="10" stroke-linecap="round" stroke-linejoin="round"/>
<path d="M26.2534 34.9614C26.2534 36.0797 25.52 37.5464 24.585 38.1147L22 39.783C19.5984 41.268 16.2617 39.5997 16.2617 36.6297V26.8214C16.2617 25.5197 15.5284 23.8514 14.7767 22.9347L7.73664 15.528C6.80164 14.593 6.06836 12.943 6.06836 11.8247" stroke="#25D366" stroke-width="2.5" stroke-miterlimit="10" stroke-linecap="round" stroke-linejoin="round"/>
<path d="M29.4619 30.2865C32.702 30.2865 35.3286 27.66 35.3286 24.4199C35.3286 21.1798 32.702 18.5532 29.4619 18.5532C26.2218 18.5532 23.5952 21.1798 23.5952 24.4199C23.5952 27.66 26.2218 30.2865 29.4619 30.2865Z" stroke="#25D366" stroke-width="2.5" stroke-linecap="round" stroke-linejoin="round"/>
<path d="M36.4286 31.3866L34.5952 29.5532" stroke="#25D366" stroke-width="2.5" stroke-linecap="round" stroke-linejoin="round"/>
</svg>
