<svg width="637" height="752" viewBox="0 0 637 752" fill="none" xmlns="http://www.w3.org/2000/svg">
<g filter="url(#filter0_g_89_144)">
<path d="M490.549 94.9732C476.276 98.1419 461.503 102.371 447.595 107.097C320.65 150.416 210.186 247.159 158.688 372.432C105.859 498.164 113.122 639.613 148.007 768.862C151.783 782.931 155.971 797.248 160.586 811.817C156.289 797.151 152.409 782.755 148.928 768.625C116.686 638.748 111.075 498.649 163.3 374.362C214.254 250.551 322.125 153.851 447.909 107.993C461.689 102.995 476.352 98.4665 490.549 94.9732Z" fill="url(#paint0_linear_89_144)" fill-opacity="0.78"/>
</g>
<g filter="url(#filter1_g_89_144)">
<path d="M467.942 100.679C453.528 103.436 438.554 107.364 424.413 111.837C295.364 152.692 180.875 254.895 133.557 387.285C84.7319 520.145 104.077 665.317 153.429 790.378C158.801 804.016 164.636 817.822 170.947 831.798C167.023 816.974 163.492 802.464 160.332 788.262C130.833 657.522 124.503 522.022 169.243 400.343C212.934 279.243 307.75 178.266 427.11 118.535C440.186 112.034 454.219 105.874 467.942 100.679Z" fill="#075E54" fill-opacity="0.88"/>
</g>
<defs>
<filter id="filter0_g_89_144" x="120.332" y="94.8632" width="370.327" height="717.064" filterUnits="userSpaceOnUse" colorInterpolationFilters="sRGB">
<feFlood floodOpacity="0" result="BackgroundImageFix"/>
<feBlend mode="normal" in="SourceGraphic" in2="BackgroundImageFix" result="shape"/>
<feTurbulence type="fractalNoise" baseFrequency="0.0099999997764825821 0.0099999997764825821" numOctaves="3" seed="5358" />
<feDisplacementMap in="shape" scale="0.2199999988079071" xChannelSelector="R" yChannelSelector="G" result="displacedImage" width="100%" height="100%" />
<feMerge result="effect1_texture_89_144">
<feMergeNode in="displacedImage"/>
</feMerge>
</filter>
<filter id="filter1_g_89_144" x="5.2439" y="0.679443" width="562.698" height="931.119" filterUnits="userSpaceOnUse" colorInterpolationFilters="sRGB">
<feFlood floodOpacity="0" result="BackgroundImageFix"/>
<feBlend mode="normal" in="SourceGraphic" in2="BackgroundImageFix" result="shape"/>
<feTurbulence type="fractalNoise" baseFrequency="0.20876826345920563 0.20876826345920563" numOctaves="3" seed="5358" />
<feDisplacementMap in="shape" scale="200" xChannelSelector="R" yChannelSelector="G" result="displacedImage" width="100%" height="100%" />
<feMerge result="effect1_texture_89_144">
<feMergeNode in="displacedImage"/>
</feMerge>
</filter>
<linearGradient id="paint0_linear_89_144" x1="471.014" y1="94.1183" x2="86.9035" y2="642.331" gradientUnits="userSpaceOnUse">
<stop stop-color="#075E54"/>
<stop offset="1" stop-color="#F3F3F3"/>
</linearGradient>
</defs>
</svg>
