<svg width="44" height="44" viewBox="0 0 44 44" fill="none" xmlns="http://www.w3.org/2000/svg">
<path fill-rule="evenodd" clip-rule="evenodd" d="M22 0C34.1503 0 44 9.84974 44 22C44 34.1503 34.1503 44 22 44C9.84974 44 0 34.1503 0 22C0 9.84974 9.84974 0 22 0ZM16.3838 12.54C16.0612 12.5401 15.7532 12.5985 15.46 12.7158C15.1666 12.8038 14.9172 12.9509 14.7119 13.1562C14.3013 13.5962 14.008 14.0805 13.832 14.6084C13.6562 15.1068 13.627 15.6051 13.7441 16.1035V25.5195C13.7735 26.1942 13.7881 26.8693 13.7881 27.5439C13.7588 28.1891 13.8758 28.8197 14.1396 29.4355C14.3156 29.9342 14.6537 30.3307 15.1523 30.624C15.6214 30.8878 16.1051 31.0194 16.6035 31.0195C17.0142 31.0195 17.3814 30.9319 17.7041 30.7559C17.9974 30.5799 18.3053 30.3304 18.6279 30.0078C18.8626 29.7438 19.0535 29.4652 19.2002 29.1719C19.3175 28.8493 19.4052 28.512 19.4639 28.1602C19.4932 27.8082 19.5078 27.4555 19.5078 27.1035C19.4785 26.7224 19.4492 26.3558 19.4199 26.0039L19.376 16.4561V16.0596C19.376 15.7957 19.3613 15.4876 19.332 15.1357C19.2734 14.7839 19.171 14.4173 19.0244 14.0361C18.8778 13.6549 18.6721 13.3469 18.4082 13.1123C18.2029 12.9363 17.9095 12.8038 17.5283 12.7158C17.1177 12.5985 16.7358 12.54 16.3838 12.54ZM27.8682 12.54C27.5456 12.54 27.2376 12.5986 26.9443 12.7158C26.651 12.8038 26.4016 12.9509 26.1963 13.1562C25.7856 13.5963 25.4924 14.0804 25.3164 14.6084C25.1405 15.1068 25.1104 15.6051 25.2275 16.1035V25.5195C25.2569 26.1942 25.2725 26.8693 25.2725 27.5439C25.2431 28.1891 25.3601 28.8197 25.624 29.4355C25.8 29.9342 26.1372 30.3307 26.6357 30.624C27.105 30.888 27.5893 31.0195 28.0879 31.0195C28.4986 31.0195 28.8658 30.9319 29.1885 30.7559C29.4817 30.5799 29.7898 30.3303 30.1123 30.0078C30.3469 29.7439 30.537 29.4651 30.6836 29.1719C30.8009 28.8492 30.8896 28.5121 30.9482 28.1602C30.9776 27.8082 30.9922 27.4555 30.9922 27.1035C30.9629 26.7223 30.9336 26.3558 30.9043 26.0039L30.8604 16.4561V16.0596C30.8603 15.7957 30.8457 15.4876 30.8164 15.1357C30.7577 14.7838 30.6544 14.4174 30.5078 14.0361C30.3611 13.6548 30.1556 13.347 29.8916 13.1123C29.6863 12.9363 29.393 12.8038 29.0117 12.7158C28.6012 12.5986 28.22 12.5401 27.8682 12.54Z" fill="#2196F3"/>
</svg>
