<svg width="44" height="44" viewBox="0 0 44 44" fill="none" xmlns="http://www.w3.org/2000/svg">
<path d="M43.3473 16.7064C42.8192 14.5466 41.9391 12.431 40.707 10.4916C39.8709 9.08115 38.7708 7.6707 37.5827 6.43656C33.6222 2.46969 28.4737 0.309941 23.1931 0.045482C17.2084 -0.351206 11.0918 1.85262 6.47125 6.43656C2.11477 10.7561 -0.08547 16.5301 0.00253968 22.3482C0.0465445 27.8577 2.24679 33.3673 6.42725 37.5986C9.33156 40.5076 12.896 42.447 16.7244 43.3285C18.7926 43.8575 20.9928 44.1219 23.1931 43.9456C28.4297 43.7252 33.5342 41.6536 37.5387 37.5986C43.2153 31.9127 45.1515 23.9349 43.3473 16.7064ZM30.8059 30.8108C29.2218 32.3976 26.5815 32.3976 24.9973 30.8108L21.961 27.7696L19.0566 30.6786C17.4725 32.2654 14.8322 32.2654 13.248 30.6786C11.6198 29.0478 11.6198 26.4473 13.204 24.8605L16.1083 21.9515L13.292 19.2187C11.7078 17.5879 11.7078 14.9874 13.292 13.3125C14.9202 11.7257 17.5165 11.7257 19.1886 13.3125L21.9169 16.1334L24.8653 13.1803C26.4494 11.5935 29.0457 11.5935 30.6739 13.1803C32.2581 14.767 32.2581 17.4116 30.6739 18.9983L27.7696 21.9074L30.8059 24.9927C32.3901 26.5795 32.3901 29.2241 30.8059 30.8108Z" fill="#F44336"/>
</svg>
