<svg width="44" height="44" viewBox="0 0 44 44" fill="none" xmlns="http://www.w3.org/2000/svg">
<path d="M22 0C16.808 0 12.056 1.804 8.272 4.84C3.212 8.844 0 15.048 0 22C0 26.136 1.144 30.008 3.212 33.308C6.996 39.688 13.948 44 22 44C27.544 44 32.604 41.976 36.476 38.5C38.192 37.048 39.688 35.288 40.832 33.308C42.856 30.008 44 26.136 44 22C44 9.856 34.144 0 22 0ZM33.396 19.624L21.648 30.448C20.856 31.196 19.844 31.548 18.832 31.548C17.776 31.548 16.72 31.152 15.928 30.36L10.516 24.904C8.888 23.276 8.888 20.68 10.516 19.052C12.144 17.424 14.74 17.424 16.368 19.052L18.964 21.648L27.808 13.508C29.48 11.968 32.076 12.056 33.616 13.728C35.156 15.444 35.068 18.084 33.396 19.624Z" fill="#4CAF50"/>
</svg>
