<svg width="48" height="48" viewBox="0 0 48 48" fill="none" xmlns="http://www.w3.org/2000/svg">
<path opacity="0.4" d="M32.38 4H15.62C8.34 4 4 8.34 4 15.62V32.36C4 39.66 8.34 44 15.62 44H32.36C39.64 44 43.98 39.66 43.98 32.38V15.62C44 8.34 39.66 4 32.38 4Z" fill="white"/>
<path d="M33.5459 31.4247L26.1213 24.0001L33.5459 16.5755C34.1258 15.9956 34.1258 15.034 33.5459 14.4541C32.9661 13.8743 32.0044 13.8743 31.4246 14.4541L24 21.8788L16.5754 14.4541C15.9956 13.8743 15.0339 13.8743 14.4541 14.4541C13.8742 15.034 13.8742 15.9956 14.4541 16.5755L21.8787 24.0001L14.4541 31.4247C13.8742 32.0045 13.8742 32.9662 14.4541 33.546C15.0339 34.1259 15.9956 34.1259 16.5754 33.546L24 26.1214L31.4246 33.546C32.0044 34.1259 32.9661 34.1259 33.5459 33.546C34.1258 32.9662 34.1258 32.0045 33.5459 31.4247Z" fill="white"/>
</svg>
