<svg width="56" height="56" viewBox="0 0 56 56" fill="none" xmlns="http://www.w3.org/2000/svg">
<path d="M35 28C35 24.1267 31.8733 21 28 21C24.1267 21 21 24.1267 21 28C21 31.8733 24.1267 35 28 35C28.9567 35 29.89 34.8133 30.73 34.44" stroke="white" strokeWidth="3.5" strokeMiterlimit="10" strokeLinecap="round" strokeLinejoin="round"/>
<path d="M16.0533 48.02L18.5967 49.49C20.44 50.5866 22.82 49.9333 23.9167 48.09L24.1733 47.6466C26.2733 43.9833 29.7267 43.9833 31.85 47.6466L32.1067 48.09C33.2033 49.9333 35.5833 50.5866 37.4267 49.49L41.4633 47.18C43.5867 45.9666 44.31 43.2366 43.0967 41.1366C40.9733 37.4733 42.7 34.4866 46.9233 34.4866C49.35 34.4866 51.3567 32.5033 51.3567 30.0533V25.9466C51.3567 23.52 49.3733 21.5133 46.9233 21.5133C44.5667 21.5133 42.98 20.58 42.42 19.11C41.9767 17.9666 42.1633 16.4733 43.0967 14.8633C44.31 12.74 43.5867 10.0333 41.4633 8.81998L39.5733 7.74664" stroke="white" strokeWidth="3.5" strokeMiterlimit="10" strokeLinecap="round" strokeLinejoin="round"/>
<path d="M31.8266 8.35333C29.7266 12.0167 26.2733 12.0167 24.15 8.35333L23.8933 7.90999C22.82 6.06666 20.44 5.41333 18.5966 6.50999L14.56 8.81999C12.4366 10.0333 11.7133 12.7633 12.9266 14.8867C15.05 18.5267 13.3233 21.5133 9.09996 21.5133C6.67329 21.5133 4.66663 23.4967 4.66663 25.9467V30.0533C4.66663 32.48 6.64996 34.4867 9.09996 34.4867C13.3233 34.4867 15.05 37.4733 12.9266 41.1367" stroke="white" strokeWidth="3.5" strokeMiterlimit="10" strokeLinecap="round" strokeLinejoin="round"/>
</svg>
