<svg width="56" height="56" viewBox="0 0 56 56" fill="none" xmlns="http://www.w3.org/2000/svg">
<path d="M24.3367 5.64666C26.6 4.33999 29.4 4.33999 31.6867 5.64666L45.5467 13.65C47.81 14.9566 49.21 17.3834 49.21 20.0201V35.98C49.21 38.5933 47.81 41.0201 45.5467 42.3501L31.6867 50.3534C29.4234 51.6601 26.6234 51.6601 24.3367 50.3534L10.4767 42.3501C8.21335 41.0434 6.81335 38.6167 6.81335 35.98V20.0201C6.81335 17.4067 8.21335 14.98 10.4767 13.65L14.91 11.0834" stroke="white" strokeWidth="3.5" strokeLinecap="round" strokeLinejoin="round"/>
<path d="M27.9999 25.6667C31.0025 25.6667 33.4366 23.2325 33.4366 20.23C33.4366 17.2274 31.0025 14.7934 27.9999 14.7934C24.9973 14.7934 22.5632 17.2274 22.5632 20.23C22.5632 23.2325 24.9973 25.6667 27.9999 25.6667Z" stroke="white" strokeWidth="3.5" strokeLinecap="round" strokeLinejoin="round"/>
<path d="M37.3333 38.8733C37.3333 34.6733 33.1566 31.2667 28 31.2667C22.8433 31.2667 18.6666 34.6733 18.6666 38.8733" stroke="white" strokeWidth="3.5" strokeLinecap="round" strokeLinejoin="round"/>
</svg>
