<svg width="44" height="42" viewBox="0 0 44 42" fill="none" xmlns="http://www.w3.org/2000/svg">
<path opacity="0.4" d="M21.9736 38.5C31.748 38.5 39.6717 30.665 39.6717 21C39.6717 11.335 31.748 3.5 21.9736 3.5C12.1992 3.5 4.27547 11.335 4.27547 21C4.27547 30.665 12.1992 38.5 21.9736 38.5Z" fill="#F44336"/>
<path d="M23.8496 21L27.9202 16.975C28.4334 16.4675 28.4334 15.6275 27.9202 15.12C27.4069 14.6125 26.5574 14.6125 26.0442 15.12L21.9736 19.145L17.903 15.12C17.3898 14.6125 16.5403 14.6125 16.027 15.12C15.5138 15.6275 15.5138 16.4675 16.027 16.975L20.0976 21L16.027 25.025C15.5138 25.5325 15.5138 26.3725 16.027 26.88C16.2925 27.1425 16.6288 27.265 16.965 27.265C17.3013 27.265 17.6376 27.1425 17.903 26.88L21.9736 22.855L26.0442 26.88C26.3096 27.1425 26.6459 27.265 26.9822 27.265C27.3184 27.265 27.6547 27.1425 27.9202 26.88C28.4334 26.3725 28.4334 25.5325 27.9202 25.025L23.8496 21Z" fill="#F44336"/>
</svg>
