<svg width="42" height="42" viewBox="0 0 42 42" fill="none" xmlns="http://www.w3.org/2000/svg">
<path opacity="0.4" d="M21 38.5C30.665 38.5 38.5 30.665 38.5 21C38.5 11.335 30.665 3.5 21 3.5C11.335 3.5 3.5 11.335 3.5 21C3.5 30.665 11.335 38.5 21 38.5Z" fill="#2196F3"/>
<path d="M21 24.0625C21.7175 24.0625 22.3125 23.4675 22.3125 22.75V14C22.3125 13.2825 21.7175 12.6875 21 12.6875C20.2825 12.6875 19.6875 13.2825 19.6875 14V22.75C19.6875 23.4675 20.2825 24.0625 21 24.0625Z" fill="#2196F3"/>
<path d="M22.61 27.335C22.5225 27.125 22.4 26.9325 22.2425 26.7575C22.0675 26.6 21.875 26.4775 21.665 26.39C21.245 26.215 20.755 26.215 20.335 26.39C20.125 26.4775 19.9325 26.6 19.7575 26.7575C19.6 26.9325 19.4775 27.125 19.39 27.335C19.3025 27.545 19.25 27.7725 19.25 28C19.25 28.2275 19.3025 28.455 19.39 28.665C19.4775 28.8925 19.6 29.0675 19.7575 29.2425C19.9325 29.4 20.125 29.5225 20.335 29.61C20.545 29.6975 20.7725 29.75 21 29.75C21.2275 29.75 21.455 29.6975 21.665 29.61C21.875 29.5225 22.0675 29.4 22.2425 29.2425C22.4 29.0675 22.5225 28.8925 22.61 28.665C22.6975 28.455 22.75 28.2275 22.75 28C22.75 27.7725 22.6975 27.545 22.61 27.335Z" fill="#2196F3"/>
</svg>
